#N canvas 762 45 653 771 12;
#X obj 90 187 dac~;
#X obj 87 34 osc~ 440;
#X obj 172 67 osc~;
#X obj 172 100 *~ 0.75;
#X obj 172 14 * 2;
#X floatatom 86 -19 5 0 0 0 - - - 0;
#X floatatom 172 40 5 0 0 0 - - - 0;
#X obj 89 155 *~ 0.25;
#X connect 1 0 7 0;
#X connect 2 0 3 0;
#X connect 3 0 7 0;
#X connect 4 0 6 0;
#X connect 5 0 4 0;
#X connect 5 0 1 0;
#X connect 6 0 2 0;
#X connect 7 0 0 0;
#X connect 7 0 0 1;
