#N canvas 397 90 978 771 12;
#X obj 195 579 dac~;
#X obj 285 292 osc~;
#X obj 285 239 * 2;
#X floatatom 196 96 5 0 0 0 - - - 0;
#X floatatom 285 265 5 0 0 0 - - - 0;
#X obj 366 296 osc~;
#X floatatom 366 269 5 0 0 0 - - - 0;
#X obj 447 295 osc~;
#X floatatom 447 268 5 0 0 0 - - - 0;
#X obj 530 292 osc~;
#X floatatom 530 265 5 0 0 0 - - - 0;
#X obj 366 243 * 4;
#X obj 447 242 * 6;
#X obj 531 239 * 8;
#X obj 195 481 *~ 0.1;
#X obj 285 364 *~ 0.25;
#X obj 366 368 *~ 0.15;
#X obj 447 366 *~ 0.2;
#X obj 530 366 *~ 0.2;
#X obj 200 259 osc~ 440;
#X obj 195 516 clip~ -0.8 0.8;
#X obj 373 531 simple_oscillascope;
#X obj 381 465 osc~ 440;
#X obj 591 529 simple_oscillascope;
#X obj 583 121 bng 99 250 50 1 empty empty empty 0 -10 0 12 #e3c6ff #000000 #000000;
#X msg 583 89 size \$1;
#X obj 559 56 vsl 19 162 9 127 0 0 empty empty empty 0 -9 0 12 #e3c6ff #000000 #000000 0 1;
#X obj 194 28 loadbang;
#X msg 197 66 440;
#X text 686 111 you can have a message that is an attribute of an object and have \$1 as a param of the inlet and the output will change the value of the receiving objects property. Here I have a slider with a specified range changing the size property of the bang.;
#X connect 1 0 15 0;
#X connect 2 0 4 0;
#X connect 3 0 2 0;
#X connect 3 0 11 0;
#X connect 3 0 12 0;
#X connect 3 0 13 0;
#X connect 3 0 19 0;
#X connect 4 0 1 0;
#X connect 5 0 16 0;
#X connect 6 0 5 0;
#X connect 7 0 17 0;
#X connect 8 0 7 0;
#X connect 9 0 18 0;
#X connect 10 0 9 0;
#X connect 11 0 6 0;
#X connect 12 0 8 0;
#X connect 13 0 10 0;
#X connect 14 0 20 0;
#X connect 14 0 23 0;
#X connect 15 0 14 0;
#X connect 16 0 14 0;
#X connect 17 0 14 0;
#X connect 18 0 14 0;
#X connect 19 0 14 0;
#X connect 20 0 0 0;
#X connect 20 0 0 1;
#X connect 22 0 21 0;
#X connect 25 0 24 0;
#X connect 26 0 25 0;
#X connect 27 0 28 0;
#X connect 28 0 3 0;
