#N canvas 802 156 544 437 12;
#X obj 318 168 inlet~;
#X obj 331 200 bng 30 250 50 1 empty empty empty 0 -10 0 12 #00ff04 #000000 #000000;
#X obj 318 268 tabwrite~ \$0-scope;
#X obj 104 330 s \$0-scope;
#X msg 104 302 resize \$1;
#X obj 107 264 hsl 195 19 44 4400 1 0 empty empty empty -2 -10 0 12 #ff8300 #000000 #000000 0 1;
#N canvas 0 22 450 278 (subpatch) 0;
#X array \$0-scope 65 float 4;
#X coords 0 1 64 -1 200 140 1 0 0;
#X restore 104 119 graph;
#X text 98 79 https://www.youtube.com/watch?v=1B0h-MzNqp0&t=242s;
#X obj 331 237 metro 100;
#X connect 0 0 2 0;
#X connect 1 0 8 0;
#X connect 4 0 3 0;
#X connect 5 0 4 0;
#X connect 8 0 2 0;
#X coords 0 -1 1 1 210 190 2 100 100;
